<!-- <svg xmlns="http://www.w3.org/2000/svg" height="24px" viewBox="0 -960 960 960" width="24px" fill="#93c5fd"><path d="m305-704 112-145q12-16 28.5-23.5T480-880q18 0 34.5 7.5T543-849l112 145 170 57q26 8 41 29.5t15 47.5q0 12-3.5 24T866-523L756-367l4 164q1 35-23 59t-56 24q-2 0-22-3l-179-50-179 50q-5 2-11 2.5t-11 .5q-32 0-56-24t-23-59l4-165L95-523q-8-11-11.5-23T80-570q0-25 14.5-46.5T135-647l170-57Zm49 69-194 64 124 179-4 191 200-55 200 56-4-192 124-177-194-66-126-165-126 165Zm126 135Z"/></svg>
 -->
 <svg xmlns="http://www.w3.org/2000/svg" viewBox="0 0 576 512" height="24px" width="24px" fill="#93c5fd"><!--!Font Awesome Free 6.6.0 by @fontawesome - https://fontawesome.com License - https://fontawesome.com/license/free Copyright 2024 Fonticons, Inc.--><path d="M287.9 0c9.2 0 17.6 5.2 21.6 13.5l68.6 141.3 153.2 22.6c9 1.3 16.5 7.6 19.3 16.3s.5 18.1-5.9 24.5L433.6 328.4l26.2 155.6c1.5 9-2.2 18.1-9.7 23.5s-17.3 6-25.3 1.7l-137-73.2L151 509.1c-8.1 4.3-17.9 3.7-25.3-1.7s-11.2-14.5-9.7-23.5l26.2-155.6L31.1 218.2c-6.5-6.4-8.7-15.9-5.9-24.5s10.3-14.9 19.3-16.3l153.2-22.6L266.3 13.5C270.4 5.2 278.7 0 287.9 0zm0 79L235.4 187.2c-3.5 7.1-10.2 12.1-18.1 13.3L99 217.9 184.9 303c5.5 5.5 8.1 13.3 6.8 21L171.4 443.7l105.2-56.2c7.1-3.8 15.6-3.8 22.6 0l105.2 56.2L384.2 324.1c-1.3-7.7 1.2-15.5 6.8-21l85.9-85.1L358.6 200.5c-7.8-1.2-14.6-6.1-18.1-13.3L287.9 79z"/></svg>